<mxfile host="app.diagrams.net" agent="Mozilla/5.0 (Windows NT 10.0; Win64; x64) AppleWebKit/537.36 (KHTML, like Gecko) Chrome/131.0.0.0 Safari/537.36" version="26.0.1" pages="2">
  <diagram name="Halaman-1" id="MFigIKZNQ5UU-EsRGRle">
    <mxGraphModel dx="944" dy="1655" grid="1" gridSize="10" guides="1" tooltips="1" connect="1" arrows="1" fold="1" page="1" pageScale="1" pageWidth="827" pageHeight="1169" math="0" shadow="0">
      <root>
        <mxCell id="0" />
        <mxCell id="1" parent="0" />
        <mxCell id="-Lx5oDmrS1g_xQa12k1D-5" style="edgeStyle=orthogonalEdgeStyle;rounded=0;orthogonalLoop=1;jettySize=auto;html=1;" parent="1" source="-Lx5oDmrS1g_xQa12k1D-1" target="-Lx5oDmrS1g_xQa12k1D-4" edge="1">
          <mxGeometry relative="1" as="geometry" />
        </mxCell>
        <mxCell id="-Lx5oDmrS1g_xQa12k1D-1" value="Pelanggan" style="rounded=0;whiteSpace=wrap;html=1;" parent="1" vertex="1">
          <mxGeometry x="230" y="-510" width="120" height="60" as="geometry" />
        </mxCell>
        <mxCell id="-Lx5oDmrS1g_xQa12k1D-6" style="edgeStyle=orthogonalEdgeStyle;rounded=0;orthogonalLoop=1;jettySize=auto;html=1;" parent="1" source="-Lx5oDmrS1g_xQa12k1D-2" target="-Lx5oDmrS1g_xQa12k1D-4" edge="1">
          <mxGeometry relative="1" as="geometry" />
        </mxCell>
        <mxCell id="-Lx5oDmrS1g_xQa12k1D-2" value="Admin" style="rounded=0;whiteSpace=wrap;html=1;" parent="1" vertex="1">
          <mxGeometry x="890" y="-510" width="120" height="60" as="geometry" />
        </mxCell>
        <mxCell id="-Lx5oDmrS1g_xQa12k1D-7" style="edgeStyle=orthogonalEdgeStyle;rounded=0;orthogonalLoop=1;jettySize=auto;html=1;" parent="1" source="-Lx5oDmrS1g_xQa12k1D-3" target="-Lx5oDmrS1g_xQa12k1D-4" edge="1">
          <mxGeometry relative="1" as="geometry">
            <Array as="points">
              <mxPoint x="600" y="-380" />
              <mxPoint x="600" y="-380" />
            </Array>
          </mxGeometry>
        </mxCell>
        <mxCell id="-Lx5oDmrS1g_xQa12k1D-3" value="Staff" style="rounded=0;whiteSpace=wrap;html=1;" parent="1" vertex="1">
          <mxGeometry x="550" y="-280" width="120" height="60" as="geometry" />
        </mxCell>
        <mxCell id="-Lx5oDmrS1g_xQa12k1D-8" style="edgeStyle=orthogonalEdgeStyle;rounded=0;orthogonalLoop=1;jettySize=auto;html=1;" parent="1" source="-Lx5oDmrS1g_xQa12k1D-4" target="-Lx5oDmrS1g_xQa12k1D-2" edge="1">
          <mxGeometry relative="1" as="geometry">
            <Array as="points">
              <mxPoint x="780" y="-470" />
              <mxPoint x="780" y="-470" />
            </Array>
          </mxGeometry>
        </mxCell>
        <mxCell id="-Lx5oDmrS1g_xQa12k1D-9" style="edgeStyle=orthogonalEdgeStyle;rounded=0;orthogonalLoop=1;jettySize=auto;html=1;" parent="1" source="-Lx5oDmrS1g_xQa12k1D-4" target="-Lx5oDmrS1g_xQa12k1D-1" edge="1">
          <mxGeometry relative="1" as="geometry">
            <Array as="points">
              <mxPoint x="480" y="-470" />
              <mxPoint x="480" y="-470" />
            </Array>
          </mxGeometry>
        </mxCell>
        <mxCell id="-Lx5oDmrS1g_xQa12k1D-10" style="edgeStyle=orthogonalEdgeStyle;rounded=0;orthogonalLoop=1;jettySize=auto;html=1;" parent="1" source="-Lx5oDmrS1g_xQa12k1D-4" target="-Lx5oDmrS1g_xQa12k1D-3" edge="1">
          <mxGeometry relative="1" as="geometry" />
        </mxCell>
        <mxCell id="-Lx5oDmrS1g_xQa12k1D-4" value="&#xa;Sistem CafÃ© Makanan &amp;amp; Minuman&#xa;&#xa;" style="ellipse;whiteSpace=wrap;html=1;aspect=fixed;" parent="1" vertex="1">
          <mxGeometry x="560" y="-530" width="100" height="100" as="geometry" />
        </mxCell>
        <mxCell id="-Lx5oDmrS1g_xQa12k1D-11" value="&lt;br&gt;&lt;div&gt;Data Register dan Login&lt;/div&gt;&lt;div&gt;&lt;span style=&quot;background-color: initial;&quot;&gt;Data&lt;/span&gt;&lt;span style=&quot;background-color: initial;&quot;&gt;&amp;nbsp;&lt;/span&gt;menu&lt;/div&gt;&lt;div&gt;&lt;span style=&quot;background-color: initial;&quot;&gt;Data&lt;/span&gt;&lt;span style=&quot;background-color: initial;&quot;&gt;&amp;nbsp;&lt;/span&gt;ulasan pesanan&lt;br&gt;&lt;br&gt;&lt;/div&gt;" style="text;html=1;align=center;verticalAlign=middle;whiteSpace=wrap;rounded=0;" parent="1" vertex="1">
          <mxGeometry x="350" y="-530" width="210" height="40" as="geometry" />
        </mxCell>
        <mxCell id="-Lx5oDmrS1g_xQa12k1D-12" value="Data data menu&lt;br&gt;&lt;div&gt;&lt;span style=&quot;background-color: initial;&quot;&gt;Data&lt;/span&gt;&lt;span style=&quot;background-color: initial;&quot;&gt;&amp;nbsp;&lt;/span&gt;Pelanggan&lt;br&gt;&lt;div&gt;&lt;span style=&quot;background-color: initial;&quot;&gt;Data&lt;/span&gt;&lt;span style=&quot;background-color: initial;&quot;&gt;&amp;nbsp;&lt;/span&gt;pesanan&amp;nbsp;&lt;/div&gt;&lt;div&gt;&lt;span style=&quot;background-color: initial;&quot;&gt;Data&lt;/span&gt;&lt;span style=&quot;background-color: initial;&quot;&gt;&amp;nbsp;&lt;/span&gt;Penjualan/Pesanan&lt;/div&gt;&lt;div&gt;&lt;span style=&quot;background-color: initial;&quot;&gt;Data&lt;/span&gt;&lt;span style=&quot;background-color: initial;&quot;&gt;&amp;nbsp;&lt;/span&gt;stok bahan baku.&lt;/div&gt;&lt;/div&gt;" style="text;html=1;align=center;verticalAlign=middle;whiteSpace=wrap;rounded=0;" parent="1" vertex="1">
          <mxGeometry x="670" y="-550" width="210" height="60" as="geometry" />
        </mxCell>
        <mxCell id="-Lx5oDmrS1g_xQa12k1D-13" value="Data pesanan&amp;nbsp;&lt;br&gt;&lt;div&gt;&lt;span style=&quot;background-color: initial;&quot;&gt;Data&lt;/span&gt;&lt;span style=&quot;background-color: initial;&quot;&gt;&amp;nbsp;&lt;/span&gt;status pesanan&lt;/div&gt;" style="text;html=1;align=center;verticalAlign=middle;whiteSpace=wrap;rounded=0;" parent="1" vertex="1">
          <mxGeometry x="440" y="-360" width="150" height="40" as="geometry" />
        </mxCell>
        <mxCell id="-Lx5oDmrS1g_xQa12k1D-14" value="informasi pesanan&amp;nbsp;&lt;div&gt;informasi update status pesanan&lt;/div&gt;" style="text;html=1;align=center;verticalAlign=middle;whiteSpace=wrap;rounded=0;" parent="1" vertex="1">
          <mxGeometry x="610" y="-360" width="150" height="40" as="geometry" />
        </mxCell>
        <mxCell id="-Lx5oDmrS1g_xQa12k1D-15" value="&lt;br&gt;&lt;div&gt;informasi Register dan Login&lt;/div&gt;&lt;div&gt;Informasi Pemesanan&lt;/div&gt;&lt;div&gt;Informasi ulasan pesanan&lt;/div&gt;&lt;div&gt;Informasi menu&lt;br&gt;&lt;br&gt;&lt;/div&gt;" style="text;html=1;align=center;verticalAlign=middle;whiteSpace=wrap;rounded=0;" parent="1" vertex="1">
          <mxGeometry x="350" y="-460" width="210" height="60" as="geometry" />
        </mxCell>
        <mxCell id="-Lx5oDmrS1g_xQa12k1D-16" value="Informasi menu&lt;div&gt;Informasi Pelanggan&lt;br&gt;&lt;div&gt;Informasi pesanan&lt;/div&gt;&lt;div&gt;Informasi Stok&lt;/div&gt;&lt;/div&gt;&lt;div&gt;Informasi Analisis Penjualan/Pesanan&lt;/div&gt;" style="text;html=1;align=center;verticalAlign=middle;whiteSpace=wrap;rounded=0;" parent="1" vertex="1">
          <mxGeometry x="700" y="-460" width="160" height="70" as="geometry" />
        </mxCell>
      </root>
    </mxGraphModel>
  </diagram>
  <diagram id="azVm988kmilaT7nQTf0D" name="Halaman-2">
    <mxGraphModel dx="2597" dy="2080" grid="1" gridSize="10" guides="1" tooltips="1" connect="1" arrows="1" fold="1" page="1" pageScale="1" pageWidth="827" pageHeight="1169" math="0" shadow="0">
      <root>
        <mxCell id="0" />
        <mxCell id="1" parent="0" />
        <mxCell id="vOvpCUggOBUSAS4m7YZg-10" value="Informasi daftar/login" style="edgeStyle=orthogonalEdgeStyle;rounded=0;orthogonalLoop=1;jettySize=auto;html=1;" parent="1" source="vOvpCUggOBUSAS4m7YZg-1" target="vOvpCUggOBUSAS4m7YZg-4" edge="1">
          <mxGeometry x="-0.023" y="-10" relative="1" as="geometry">
            <Array as="points">
              <mxPoint x="770" y="150" />
              <mxPoint x="770" y="150" />
            </Array>
            <mxPoint as="offset" />
          </mxGeometry>
        </mxCell>
        <mxCell id="vOvpCUggOBUSAS4m7YZg-15" value="Data Menu" style="edgeStyle=orthogonalEdgeStyle;rounded=0;orthogonalLoop=1;jettySize=auto;html=1;" parent="1" source="vOvpCUggOBUSAS4m7YZg-1" target="vOvpCUggOBUSAS4m7YZg-13" edge="1">
          <mxGeometry x="0.356" y="-10" relative="1" as="geometry">
            <Array as="points">
              <mxPoint x="860" y="290" />
            </Array>
            <mxPoint as="offset" />
          </mxGeometry>
        </mxCell>
        <mxCell id="vOvpCUggOBUSAS4m7YZg-20" value="Data Pesanan" style="edgeStyle=orthogonalEdgeStyle;rounded=0;orthogonalLoop=1;jettySize=auto;html=1;" parent="1" source="vOvpCUggOBUSAS4m7YZg-1" target="vOvpCUggOBUSAS4m7YZg-17" edge="1">
          <mxGeometry x="0.6" y="-10" relative="1" as="geometry">
            <Array as="points">
              <mxPoint x="880" y="440" />
            </Array>
            <mxPoint as="offset" />
          </mxGeometry>
        </mxCell>
        <mxCell id="vOvpCUggOBUSAS4m7YZg-26" value="Data Menu" style="edgeStyle=orthogonalEdgeStyle;rounded=0;orthogonalLoop=1;jettySize=auto;html=1;" parent="1" source="vOvpCUggOBUSAS4m7YZg-1" target="vOvpCUggOBUSAS4m7YZg-24" edge="1">
          <mxGeometry x="0.6716" y="-10" relative="1" as="geometry">
            <Array as="points">
              <mxPoint x="900" y="600" />
            </Array>
            <mxPoint as="offset" />
          </mxGeometry>
        </mxCell>
        <mxCell id="vOvpCUggOBUSAS4m7YZg-1" value="Pelanggan" style="rounded=0;whiteSpace=wrap;html=1;" parent="1" vertex="1">
          <mxGeometry x="850" y="120" width="120" height="60" as="geometry" />
        </mxCell>
        <mxCell id="AVF_C-zimSfTj2Lb-a9o-4" value="Data pengguna" style="edgeStyle=orthogonalEdgeStyle;rounded=0;orthogonalLoop=1;jettySize=auto;html=1;" parent="1" source="vOvpCUggOBUSAS4m7YZg-2" target="vOvpCUggOBUSAS4m7YZg-4" edge="1">
          <mxGeometry x="-0.005" y="10" relative="1" as="geometry">
            <Array as="points">
              <mxPoint x="550" y="-30" />
              <mxPoint x="550" y="140" />
            </Array>
            <mxPoint as="offset" />
            <mxPoint x="40.91673086804008" y="-30" as="targetPoint" />
          </mxGeometry>
        </mxCell>
        <mxCell id="vOvpCUggOBUSAS4m7YZg-2" value="Admin" style="rounded=0;whiteSpace=wrap;html=1;" parent="1" vertex="1">
          <mxGeometry x="-260" y="-50" width="120" height="60" as="geometry" />
        </mxCell>
        <mxCell id="AVF_C-zimSfTj2Lb-a9o-28" value="&lt;span style=&quot;color: rgb(0, 0, 0); font-family: Helvetica; font-size: 12px; font-style: normal; font-variant-ligatures: normal; font-variant-caps: normal; font-weight: 400; letter-spacing: normal; orphans: 2; text-align: center; text-indent: 0px; text-transform: none; widows: 2; word-spacing: 0px; -webkit-text-stroke-width: 0px; white-space: normal; background-color: rgb(251, 251, 251); text-decoration-thickness: initial; text-decoration-style: initial; text-decoration-color: initial; float: none; display: inline !important;&quot;&gt;Data Pesanan&lt;/span&gt;" style="edgeStyle=orthogonalEdgeStyle;rounded=0;orthogonalLoop=1;jettySize=auto;html=1;" parent="1" source="vOvpCUggOBUSAS4m7YZg-3" target="vOvpCUggOBUSAS4m7YZg-24" edge="1">
          <mxGeometry x="-0.0067" y="-20" relative="1" as="geometry">
            <Array as="points">
              <mxPoint x="370" y="690" />
            </Array>
            <mxPoint as="offset" />
          </mxGeometry>
        </mxCell>
        <mxCell id="vOvpCUggOBUSAS4m7YZg-3" value="Staff" style="rounded=0;whiteSpace=wrap;html=1;" parent="1" vertex="1">
          <mxGeometry x="600" y="660" width="120" height="60" as="geometry" />
        </mxCell>
        <mxCell id="vOvpCUggOBUSAS4m7YZg-9" value="Data daftar/Login" style="edgeStyle=orthogonalEdgeStyle;rounded=0;orthogonalLoop=1;jettySize=auto;html=1;" parent="1" source="vOvpCUggOBUSAS4m7YZg-4" target="vOvpCUggOBUSAS4m7YZg-1" edge="1">
          <mxGeometry x="-0.1186" y="-10" relative="1" as="geometry">
            <Array as="points">
              <mxPoint x="770" y="160" />
              <mxPoint x="770" y="160" />
            </Array>
            <mxPoint as="offset" />
          </mxGeometry>
        </mxCell>
        <mxCell id="vOvpCUggOBUSAS4m7YZg-11" style="edgeStyle=orthogonalEdgeStyle;rounded=0;orthogonalLoop=1;jettySize=auto;html=1;" parent="1" source="vOvpCUggOBUSAS4m7YZg-4" target="vOvpCUggOBUSAS4m7YZg-5" edge="1">
          <mxGeometry relative="1" as="geometry">
            <Array as="points">
              <mxPoint x="640" y="50" />
              <mxPoint x="640" y="50" />
            </Array>
          </mxGeometry>
        </mxCell>
        <mxCell id="vOvpCUggOBUSAS4m7YZg-4" value="1.0&amp;nbsp;&lt;div&gt;Daftar dan Login&lt;/div&gt;" style="ellipse;whiteSpace=wrap;html=1;aspect=fixed;" parent="1" vertex="1">
          <mxGeometry x="580" y="95" width="110" height="110" as="geometry" />
        </mxCell>
        <mxCell id="vOvpCUggOBUSAS4m7YZg-12" style="edgeStyle=orthogonalEdgeStyle;rounded=0;orthogonalLoop=1;jettySize=auto;html=1;" parent="1" target="vOvpCUggOBUSAS4m7YZg-4" edge="1">
          <mxGeometry relative="1" as="geometry">
            <mxPoint x="632.5" y="10" as="sourcePoint" />
            <mxPoint x="637.5" y="95" as="targetPoint" />
            <Array as="points">
              <mxPoint x="633" y="50" />
              <mxPoint x="633" y="50" />
            </Array>
          </mxGeometry>
        </mxCell>
        <mxCell id="vOvpCUggOBUSAS4m7YZg-5" value="Database Pelanggan" style="shape=partialRectangle;whiteSpace=wrap;html=1;left=0;right=0;fillColor=none;" parent="1" vertex="1">
          <mxGeometry x="580" y="-50" width="120" height="60" as="geometry" />
        </mxCell>
        <mxCell id="vOvpCUggOBUSAS4m7YZg-18" value="Informasi menu" style="edgeStyle=orthogonalEdgeStyle;rounded=0;orthogonalLoop=1;jettySize=auto;html=1;" parent="1" source="vOvpCUggOBUSAS4m7YZg-6" target="vOvpCUggOBUSAS4m7YZg-13" edge="1">
          <mxGeometry x="0.056" y="-50" relative="1" as="geometry">
            <Array as="points">
              <mxPoint x="420" y="210" />
              <mxPoint x="420" y="210" />
            </Array>
            <mxPoint as="offset" />
          </mxGeometry>
        </mxCell>
        <mxCell id="vOvpCUggOBUSAS4m7YZg-6" value="Database Menu" style="shape=partialRectangle;whiteSpace=wrap;html=1;left=0;right=0;fillColor=none;" parent="1" vertex="1">
          <mxGeometry x="370" y="95" width="120" height="60" as="geometry" />
        </mxCell>
        <mxCell id="vOvpCUggOBUSAS4m7YZg-7" value="Database Stok" style="shape=partialRectangle;whiteSpace=wrap;html=1;left=0;right=0;fillColor=none;" parent="1" vertex="1">
          <mxGeometry x="240" y="95" width="120" height="60" as="geometry" />
        </mxCell>
        <mxCell id="vOvpCUggOBUSAS4m7YZg-23" value="Informasi Pesanan" style="edgeStyle=orthogonalEdgeStyle;rounded=0;orthogonalLoop=1;jettySize=auto;html=1;" parent="1" source="vOvpCUggOBUSAS4m7YZg-8" target="vOvpCUggOBUSAS4m7YZg-17" edge="1">
          <mxGeometry x="-0.119" y="-10" relative="1" as="geometry">
            <Array as="points">
              <mxPoint x="510" y="450" />
              <mxPoint x="510" y="450" />
            </Array>
            <mxPoint as="offset" />
          </mxGeometry>
        </mxCell>
        <mxCell id="vOvpCUggOBUSAS4m7YZg-8" value="Database Pesanan" style="shape=partialRectangle;whiteSpace=wrap;html=1;left=0;right=0;fillColor=none;" parent="1" vertex="1">
          <mxGeometry x="310" y="410" width="120" height="60" as="geometry" />
        </mxCell>
        <mxCell id="vOvpCUggOBUSAS4m7YZg-16" value="Data Menu" style="edgeStyle=orthogonalEdgeStyle;rounded=0;orthogonalLoop=1;jettySize=auto;html=1;" parent="1" source="vOvpCUggOBUSAS4m7YZg-13" target="vOvpCUggOBUSAS4m7YZg-1" edge="1">
          <mxGeometry x="-0.3989" y="-10" relative="1" as="geometry">
            <Array as="points">
              <mxPoint x="870" y="300" />
            </Array>
            <mxPoint as="offset" />
          </mxGeometry>
        </mxCell>
        <mxCell id="vOvpCUggOBUSAS4m7YZg-19" value="Data Menu" style="edgeStyle=orthogonalEdgeStyle;rounded=0;orthogonalLoop=1;jettySize=auto;html=1;" parent="1" source="vOvpCUggOBUSAS4m7YZg-13" target="vOvpCUggOBUSAS4m7YZg-6" edge="1">
          <mxGeometry x="-0.056" y="-30" relative="1" as="geometry">
            <Array as="points">
              <mxPoint x="430" y="200" />
              <mxPoint x="430" y="200" />
            </Array>
            <mxPoint as="offset" />
          </mxGeometry>
        </mxCell>
        <mxCell id="vOvpCUggOBUSAS4m7YZg-13" value="2.0&amp;nbsp;&lt;div&gt;Katalog Menu&lt;/div&gt;" style="ellipse;whiteSpace=wrap;html=1;aspect=fixed;" parent="1" vertex="1">
          <mxGeometry x="370" y="240" width="110" height="110" as="geometry" />
        </mxCell>
        <mxCell id="vOvpCUggOBUSAS4m7YZg-22" value="Data Pesanan" style="edgeStyle=orthogonalEdgeStyle;rounded=0;orthogonalLoop=1;jettySize=auto;html=1;" parent="1" source="vOvpCUggOBUSAS4m7YZg-17" target="vOvpCUggOBUSAS4m7YZg-8" edge="1">
          <mxGeometry x="0.0667" y="-10" relative="1" as="geometry">
            <Array as="points">
              <mxPoint x="510" y="440" />
              <mxPoint x="510" y="440" />
            </Array>
            <mxPoint as="offset" />
          </mxGeometry>
        </mxCell>
        <mxCell id="vOvpCUggOBUSAS4m7YZg-17" value="3.0&amp;nbsp;&lt;div&gt;Rating Pesanan&lt;/div&gt;" style="ellipse;whiteSpace=wrap;html=1;aspect=fixed;" parent="1" vertex="1">
          <mxGeometry x="580" y="385" width="110" height="110" as="geometry" />
        </mxCell>
        <mxCell id="vOvpCUggOBUSAS4m7YZg-21" value="Informasi Pesanan" style="edgeStyle=orthogonalEdgeStyle;rounded=0;orthogonalLoop=1;jettySize=auto;html=1;" parent="1" source="vOvpCUggOBUSAS4m7YZg-17" target="vOvpCUggOBUSAS4m7YZg-1" edge="1">
          <mxGeometry x="-0.6139" y="-10" relative="1" as="geometry">
            <Array as="points">
              <mxPoint x="890" y="450" />
            </Array>
            <mxPoint as="offset" />
          </mxGeometry>
        </mxCell>
        <mxCell id="vOvpCUggOBUSAS4m7YZg-24" value="4.0&amp;nbsp;&lt;div&gt;Melakukan Pemesanan&lt;/div&gt;" style="ellipse;whiteSpace=wrap;html=1;aspect=fixed;" parent="1" vertex="1">
          <mxGeometry x="310" y="560" width="110" height="110" as="geometry" />
        </mxCell>
        <mxCell id="vOvpCUggOBUSAS4m7YZg-25" value="Update Data Pesanan" style="edgeStyle=orthogonalEdgeStyle;rounded=0;orthogonalLoop=1;jettySize=auto;html=1;" parent="1" source="vOvpCUggOBUSAS4m7YZg-24" target="vOvpCUggOBUSAS4m7YZg-1" edge="1">
          <mxGeometry x="-0.6501" y="-10" relative="1" as="geometry">
            <Array as="points">
              <mxPoint x="910" y="610" />
            </Array>
            <mxPoint as="offset" />
          </mxGeometry>
        </mxCell>
        <mxCell id="vOvpCUggOBUSAS4m7YZg-27" value="" style="edgeStyle=orthogonalEdgeStyle;rounded=0;orthogonalLoop=1;jettySize=auto;html=1;" parent="1" source="vOvpCUggOBUSAS4m7YZg-24" target="vOvpCUggOBUSAS4m7YZg-8" edge="1">
          <mxGeometry x="-0.1083" y="20" relative="1" as="geometry">
            <Array as="points">
              <mxPoint x="360" y="510" />
              <mxPoint x="360" y="510" />
            </Array>
            <mxPoint as="offset" />
          </mxGeometry>
        </mxCell>
        <mxCell id="vOvpCUggOBUSAS4m7YZg-28" value="Updata Data&amp;nbsp;&lt;div&gt;Pesanan&lt;/div&gt;" style="edgeStyle=orthogonalEdgeStyle;rounded=0;orthogonalLoop=1;jettySize=auto;html=1;" parent="1" source="vOvpCUggOBUSAS4m7YZg-8" target="vOvpCUggOBUSAS4m7YZg-24" edge="1">
          <mxGeometry x="0.1083" y="40" relative="1" as="geometry">
            <Array as="points">
              <mxPoint x="370" y="510" />
              <mxPoint x="370" y="510" />
            </Array>
            <mxPoint as="offset" />
          </mxGeometry>
        </mxCell>
        <mxCell id="AVF_C-zimSfTj2Lb-a9o-7" value="Informasi Update Pengguna" style="edgeStyle=orthogonalEdgeStyle;rounded=0;orthogonalLoop=1;jettySize=auto;html=1;" parent="1" source="vOvpCUggOBUSAS4m7YZg-4" target="vOvpCUggOBUSAS4m7YZg-2" edge="1">
          <mxGeometry y="10" relative="1" as="geometry">
            <mxPoint as="offset" />
            <mxPoint x="40" y="-20" as="sourcePoint" />
            <Array as="points">
              <mxPoint x="540" y="150" />
              <mxPoint x="540" y="-20" />
            </Array>
          </mxGeometry>
        </mxCell>
        <mxCell id="AVF_C-zimSfTj2Lb-a9o-8" value="Data Menu" style="edgeStyle=orthogonalEdgeStyle;rounded=0;orthogonalLoop=1;jettySize=auto;html=1;entryX=-0.001;entryY=0.459;entryDx=0;entryDy=0;entryPerimeter=0;" parent="1" source="vOvpCUggOBUSAS4m7YZg-2" target="vOvpCUggOBUSAS4m7YZg-13" edge="1">
          <mxGeometry x="0.5851" y="10" relative="1" as="geometry">
            <Array as="points">
              <mxPoint x="-170" y="291" />
            </Array>
            <mxPoint as="offset" />
            <mxPoint x="42.09357325600945" y="289.969696969697" as="targetPoint" />
          </mxGeometry>
        </mxCell>
        <mxCell id="AVF_C-zimSfTj2Lb-a9o-9" value="" style="edgeStyle=orthogonalEdgeStyle;rounded=0;orthogonalLoop=1;jettySize=auto;html=1;" parent="1" source="vOvpCUggOBUSAS4m7YZg-13" target="vOvpCUggOBUSAS4m7YZg-2" edge="1">
          <mxGeometry x="-0.5679" y="10" relative="1" as="geometry">
            <Array as="points">
              <mxPoint x="-180" y="300" />
            </Array>
            <mxPoint as="offset" />
            <mxPoint x="40.23051897796245" y="299.969696969697" as="sourcePoint" />
          </mxGeometry>
        </mxCell>
        <mxCell id="AVF_C-zimSfTj2Lb-a9o-14" value="Update Data Pesanan" style="edgeStyle=orthogonalEdgeStyle;rounded=0;orthogonalLoop=1;jettySize=auto;html=1;exitX=0;exitY=0.5;exitDx=0;exitDy=0;" parent="1" source="vOvpCUggOBUSAS4m7YZg-24" target="vOvpCUggOBUSAS4m7YZg-2" edge="1">
          <mxGeometry x="-0.6972" y="10" relative="1" as="geometry">
            <Array as="points">
              <mxPoint x="310" y="610" />
              <mxPoint x="-220" y="610" />
            </Array>
            <mxPoint as="offset" />
            <mxPoint x="40.227744249483294" y="610" as="sourcePoint" />
          </mxGeometry>
        </mxCell>
        <mxCell id="AVF_C-zimSfTj2Lb-a9o-29" value="&lt;span style=&quot;color: rgb(0, 0, 0); font-family: Helvetica; font-size: 12px; font-style: normal; font-variant-ligatures: normal; font-variant-caps: normal; font-weight: 400; letter-spacing: normal; orphans: 2; text-align: center; text-indent: 0px; text-transform: none; widows: 2; word-spacing: 0px; -webkit-text-stroke-width: 0px; white-space: normal; background-color: rgb(251, 251, 251); text-decoration-thickness: initial; text-decoration-style: initial; text-decoration-color: initial; float: none; display: inline !important;&quot;&gt;Update Data Pesanan&lt;/span&gt;&lt;div&gt;&lt;br/&gt;&lt;/div&gt;" style="edgeStyle=orthogonalEdgeStyle;rounded=0;orthogonalLoop=1;jettySize=auto;html=1;" parent="1" source="vOvpCUggOBUSAS4m7YZg-24" target="vOvpCUggOBUSAS4m7YZg-3" edge="1">
          <mxGeometry x="0.0783" y="-40" relative="1" as="geometry">
            <Array as="points">
              <mxPoint x="360" y="700" />
            </Array>
            <mxPoint as="offset" />
          </mxGeometry>
        </mxCell>
        <mxCell id="AVF_C-zimSfTj2Lb-a9o-13" value="Data Pesanan" style="edgeStyle=orthogonalEdgeStyle;rounded=0;orthogonalLoop=1;jettySize=auto;html=1;" parent="1" source="vOvpCUggOBUSAS4m7YZg-2" target="vOvpCUggOBUSAS4m7YZg-24" edge="1">
          <mxGeometry x="0.69" y="10" relative="1" as="geometry">
            <Array as="points">
              <mxPoint x="-210" y="600" />
            </Array>
            <mxPoint as="offset" />
            <mxPoint x="40.227744249483294" y="600" as="targetPoint" />
          </mxGeometry>
        </mxCell>
        <mxCell id="AVF_C-zimSfTj2Lb-a9o-21" value="&lt;span style=&quot;color: rgb(0, 0, 0); font-family: Helvetica; font-size: 11px; font-style: normal; font-variant-ligatures: normal; font-variant-caps: normal; font-weight: 400; letter-spacing: normal; orphans: 2; text-align: center; text-indent: 0px; text-transform: none; widows: 2; word-spacing: 0px; -webkit-text-stroke-width: 0px; white-space: nowrap; background-color: rgb(255, 255, 255); text-decoration-thickness: initial; text-decoration-style: initial; text-decoration-color: initial; display: inline !important; float: none;&quot;&gt;Data Stok Pangan&lt;/span&gt;" style="edgeStyle=orthogonalEdgeStyle;rounded=0;orthogonalLoop=1;jettySize=auto;html=1;" parent="1" source="AVF_C-zimSfTj2Lb-a9o-17" target="vOvpCUggOBUSAS4m7YZg-7" edge="1">
          <mxGeometry x="0.0981" y="10" relative="1" as="geometry">
            <Array as="points">
              <mxPoint x="160" y="120" />
              <mxPoint x="160" y="120" />
            </Array>
            <mxPoint as="offset" />
          </mxGeometry>
        </mxCell>
        <mxCell id="AVF_C-zimSfTj2Lb-a9o-17" value="5.0&amp;nbsp;&lt;div&gt;kelola Stok&amp;nbsp;&lt;/div&gt;&lt;div&gt;Pangan&lt;/div&gt;" style="ellipse;whiteSpace=wrap;html=1;aspect=fixed;" parent="1" vertex="1">
          <mxGeometry x="-25" y="70" width="110" height="110" as="geometry" />
        </mxCell>
        <mxCell id="AVF_C-zimSfTj2Lb-a9o-18" value="Data Stok Pangan" style="edgeStyle=orthogonalEdgeStyle;rounded=0;orthogonalLoop=1;jettySize=auto;html=1;" parent="1" source="vOvpCUggOBUSAS4m7YZg-2" target="AVF_C-zimSfTj2Lb-a9o-17" edge="1">
          <mxGeometry x="0.3509" y="10" relative="1" as="geometry">
            <Array as="points">
              <mxPoint x="-150" y="120" />
            </Array>
            <mxPoint as="offset" />
          </mxGeometry>
        </mxCell>
        <mxCell id="AVF_C-zimSfTj2Lb-a9o-19" value="&lt;span style=&quot;color: rgb(0, 0, 0); font-family: Helvetica; font-size: 11px; font-style: normal; font-variant-ligatures: normal; font-variant-caps: normal; font-weight: 400; letter-spacing: normal; orphans: 2; text-align: center; text-indent: 0px; text-transform: none; widows: 2; word-spacing: 0px; -webkit-text-stroke-width: 0px; white-space: nowrap; background-color: rgb(255, 255, 255); text-decoration-thickness: initial; text-decoration-style: initial; text-decoration-color: initial; display: inline !important; float: none;&quot;&gt;Update Stok Pangan&lt;/span&gt;" style="edgeStyle=orthogonalEdgeStyle;rounded=0;orthogonalLoop=1;jettySize=auto;html=1;" parent="1" source="AVF_C-zimSfTj2Lb-a9o-17" target="vOvpCUggOBUSAS4m7YZg-2" edge="1">
          <mxGeometry x="-0.394" y="10" relative="1" as="geometry">
            <mxPoint x="-162" y="30" as="targetPoint" />
            <Array as="points">
              <mxPoint x="-160" y="130" />
            </Array>
            <mxPoint as="offset" />
          </mxGeometry>
        </mxCell>
        <mxCell id="AVF_C-zimSfTj2Lb-a9o-22" style="edgeStyle=orthogonalEdgeStyle;rounded=0;orthogonalLoop=1;jettySize=auto;html=1;" parent="1" source="vOvpCUggOBUSAS4m7YZg-7" target="AVF_C-zimSfTj2Lb-a9o-17" edge="1">
          <mxGeometry relative="1" as="geometry">
            <Array as="points">
              <mxPoint x="180" y="130" />
              <mxPoint x="180" y="130" />
            </Array>
          </mxGeometry>
        </mxCell>
        <mxCell id="oXKR5bOyxgc5iWI7nfAG-4" value="Update Stok Pangan" style="edgeLabel;html=1;align=center;verticalAlign=middle;resizable=0;points=[];" parent="AVF_C-zimSfTj2Lb-a9o-22" vertex="1" connectable="0">
          <mxGeometry x="-0.1232" y="1" relative="1" as="geometry">
            <mxPoint x="-2" y="9" as="offset" />
          </mxGeometry>
        </mxCell>
        <mxCell id="AVF_C-zimSfTj2Lb-a9o-25" value="Informasi Analisis Pesanan" style="edgeStyle=orthogonalEdgeStyle;rounded=0;orthogonalLoop=1;jettySize=auto;html=1;entryX=0.5;entryY=1;entryDx=0;entryDy=0;" parent="1" source="AVF_C-zimSfTj2Lb-a9o-23" target="vOvpCUggOBUSAS4m7YZg-2" edge="1">
          <mxGeometry x="-0.6465" y="10" relative="1" as="geometry">
            <Array as="points">
              <mxPoint x="-200" y="450" />
            </Array>
            <mxPoint as="offset" />
          </mxGeometry>
        </mxCell>
        <mxCell id="AVF_C-zimSfTj2Lb-a9o-23" value="6.0&amp;nbsp;&lt;div&gt;Analisis&amp;nbsp;&lt;/div&gt;&lt;div&gt;Penjualan&lt;/div&gt;" style="ellipse;whiteSpace=wrap;html=1;aspect=fixed;" parent="1" vertex="1">
          <mxGeometry x="40" y="400" width="110" height="110" as="geometry" />
        </mxCell>
        <mxCell id="AVF_C-zimSfTj2Lb-a9o-24" value="Data Pesanan" style="edgeStyle=orthogonalEdgeStyle;rounded=0;orthogonalLoop=1;jettySize=auto;html=1;" parent="1" source="vOvpCUggOBUSAS4m7YZg-2" target="AVF_C-zimSfTj2Lb-a9o-23" edge="1">
          <mxGeometry x="0.6614" y="10" relative="1" as="geometry">
            <Array as="points">
              <mxPoint x="-190" y="440" />
            </Array>
            <mxPoint as="offset" />
          </mxGeometry>
        </mxCell>
        <mxCell id="AVF_C-zimSfTj2Lb-a9o-26" value="Data Pesanan" style="edgeStyle=orthogonalEdgeStyle;rounded=0;orthogonalLoop=1;jettySize=auto;html=1;" parent="1" source="AVF_C-zimSfTj2Lb-a9o-23" target="vOvpCUggOBUSAS4m7YZg-8" edge="1">
          <mxGeometry x="0.0129" y="10" relative="1" as="geometry">
            <Array as="points">
              <mxPoint x="230" y="440" />
              <mxPoint x="230" y="440" />
            </Array>
            <mxPoint as="offset" />
          </mxGeometry>
        </mxCell>
        <mxCell id="AVF_C-zimSfTj2Lb-a9o-27" value="Informasi Analisi Pesanan" style="edgeStyle=orthogonalEdgeStyle;rounded=0;orthogonalLoop=1;jettySize=auto;html=1;" parent="1" source="vOvpCUggOBUSAS4m7YZg-8" target="AVF_C-zimSfTj2Lb-a9o-23" edge="1">
          <mxGeometry x="-0.0014" y="10" relative="1" as="geometry">
            <Array as="points">
              <mxPoint x="230" y="450" />
              <mxPoint x="230" y="450" />
            </Array>
            <mxPoint as="offset" />
          </mxGeometry>
        </mxCell>
        <mxCell id="oXKR5bOyxgc5iWI7nfAG-1" value="Data daftar/Login" style="text;html=1;align=center;verticalAlign=middle;whiteSpace=wrap;rounded=0;" parent="1" vertex="1">
          <mxGeometry x="650" y="40" width="60" height="30" as="geometry" />
        </mxCell>
        <mxCell id="oXKR5bOyxgc5iWI7nfAG-2" value="Informasi daftar/Login" style="text;html=1;align=center;verticalAlign=middle;whiteSpace=wrap;rounded=0;" parent="1" vertex="1">
          <mxGeometry x="560" y="40" width="60" height="30" as="geometry" />
        </mxCell>
      </root>
    </mxGraphModel>
  </diagram>
</mxfile>
